<?xml version="1.0" encoding="UTF-8" standalone="no"?>
<svg
   xmlns:dc="http://purl.org/dc/elements/1.1/"
   xmlns:cc="http://creativecommons.org/ns#"
   xmlns:rdf="http://www.w3.org/1999/02/22-rdf-syntax-ns#"
   xmlns:svg="http://www.w3.org/2000/svg"
   xmlns="http://www.w3.org/2000/svg"
   xmlns:sodipodi="http://sodipodi.sourceforge.net/DTD/sodipodi-0.dtd"
   xmlns:inkscape="http://www.inkscape.org/namespaces/inkscape"
   xml:space="preserve"
   version="1.1"
   style="image-rendering:optimizeQuality;shape-rendering:geometricPrecision;text-rendering:geometricPrecision"
   viewBox="0 0 333 333"
   x="0px"
   y="0px"
   fill-rule="evenodd"
   clip-rule="evenodd"
   id="svg915"
   sodipodi:docname="icon.svg"
   width="333"
   height="333"
   inkscape:version="1.0.1 (3bc2e813f5, 2020-09-07)"><metadata
     id="metadata919"><rdf:RDF><cc:Work
         rdf:about=""><dc:format>image/svg+xml</dc:format><dc:type
           rdf:resource="http://purl.org/dc/dcmitype/StillImage" /><dc:title></dc:title></cc:Work></rdf:RDF></metadata><sodipodi:namedview
     pagecolor="#ffffff"
     bordercolor="#666666"
     borderopacity="1"
     objecttolerance="10"
     gridtolerance="10"
     guidetolerance="10"
     inkscape:pageopacity="0"
     inkscape:pageshadow="2"
     inkscape:window-width="1920"
     inkscape:window-height="1053"
     id="namedview917"
     showgrid="false"
     fit-margin-top="0"
     fit-margin-left="0"
     fit-margin-right="0"
     fit-margin-bottom="0"
     inkscape:zoom="1.7313131"
     inkscape:cx="150.20353"
     inkscape:cy="122.92486"
     inkscape:window-x="0"
     inkscape:window-y="27"
     inkscape:window-maximized="1"
     inkscape:current-layer="svg915" /><defs
     id="defs905"><style
       type="text/css"
       id="style903">
   
    .fil0 {fill:black;fill-rule:nonzero}
   
  </style></defs><g
     id="g909"
     transform="translate(0,50)"><path
       class="fil0"
       d="M 9,46 H 210 V 27 h -99 v 0 c -3,0 -5,-2 -5,-4 V 0 h 9 v 19 h 100 c 2,0 4,2 4,4 v 0 23 h 105 c 5,0 9,4 9,9 v 135 c 0,4 -4,8 -9,8 H 9 c -5,0 -9,-4 -9,-8 V 55 c 0,-5 4,-9 9,-9 z m 8,17 V 181 H 315 V 63 C 212,63 129,63 17,63 Z m 233,84 h 44 v 17 h -44 z m -148,0 h 127 v 17 H 102 Z m -67,0 h 45 v 17 H 35 Z M 252,83 h 15 v 17 h -15 z m -42,0 h 15 v 17 h -15 z m -84,0 h 16 v 17 h -16 z m 42,0 h 15 v 17 h -15 z m -84,0 h 16 v 17 H 84 Z m -49,0 h 30 v 17 H 35 Z m 175,32 h 15 v 17 h -15 z m -42,0 h 15 v 17 h -15 z m -42,0 h 16 v 17 h -16 z m -42,0 h 16 v 17 H 84 Z m -49,0 h 30 v 17 H 35 Z M 299,86 v 39 c 0,4 -4,8 -9,8 h -40 v -17 h 32 V 86 Z"
       id="path907"
       style="fill:#632ffa;fill-opacity:1" /></g></svg>
